<svg version="1.1" xmlns="http://www.w3.org/2000/svg" viewBox="22.8 21.7 1266.3 643.3">
<rect x="22.8" y="21.7" width="1266.3" height="643.3" fill="#202124" />
<polyline points="223.0 108.9,222.0 106.9,222.0 112.9,221.0 114.9,221.0 118.9,220.0 132.9,220.0 135.9,221.0 144.9,222.0 146.9,224.0 147.9,229.0 146.9,231.0 145.9,233.0 144.9" style="fill:none;stroke:#ffffff;stroke-width:2"/>
<polyline points="254.0 123.9,251.0 122.9,249.0 125.9,247.0 129.9,247.0 132.9,246.0 135.9,246.0 138.9,248.0 148.9,251.0 149.9,254.0 149.9,256.0 148.9,257.0 146.9,259.0 141.9,260.0 135.9,259.0 133.9,259.0 130.9,257.0 127.9,255.0 126.9,250.0 125.9" style="fill:none;stroke:#ffffff;stroke-width:2"/>
<polyline points="278.0 124.9,277.0 122.9,274.0 123.9,272.0 127.9,272.0 130.9,271.0 132.9,271.0 135.9,272.0 141.9,274.0 143.9,276.0 144.9,279.0 144.9,282.0 139.9,283.0 136.9,284.0 134.9,285.0 130.9,284.0 127.9,281.0 130.9,280.0 135.9,280.0 140.9,282.0 146.9,284.0 151.9,286.0 153.9,287.0 156.9,289.0 158.9,290.0 160.9,292.0 163.9,290.0 165.9,287.0 166.9,283.0 166.9,276.0 165.9,274.0 164.9" style="fill:none;stroke:#ffffff;stroke-width:2"/>
<polyline points="304.0 129.9,305.0 132.9,305.0 135.9,304.0 137.9,304.0 140.9,303.0 147.9,303.0 149.9" style="fill:none;stroke:#ffffff;stroke-width:2"/>
<polyline points="321.0 121.9,319.0 125.9,318.0 128.9,318.0 131.9,317.0 137.9,318.0 133.9,319.0 130.9,320.0 128.9,321.0 125.9,322.0 123.9,324.0 120.9,327.0 121.9,327.0 126.9,326.0 136.9,326.0 139.9" style="fill:none;stroke:#ffffff;stroke-width:2"/>
<polyline points="382.0 142.9,383.0 138.9,384.0 132.9,386.0 128.9,390.0 119.9,393.0 111.9,395.0 108.9,396.0 106.9,398.0 104.9,403.0 102.9,405.0 105.9,406.0 108.9,407.0 113.9,408.0 131.9,409.0 136.9,409.0 141.9,410.0 149.9,411.0 151.9" style="fill:none;stroke:#ffffff;stroke-width:2"/>
<polyline points="392.0 135.9,396.0 134.9,401.0 132.9,404.0 130.9,406.0 130.9" style="fill:none;stroke:#ffffff;stroke-width:2"/>
<polyline points="422.0 122.9,422.0 126.9,423.0 136.9,423.0 139.9,425.0 140.9,427.0 138.9,428.0 136.9,429.0 133.9,431.0 130.9,432.0 128.9,432.0 125.9,433.0 123.9,434.0 126.9,434.0 131.9,433.0 134.9,434.0 139.9" style="fill:none;stroke:#ffffff;stroke-width:2"/>
<polyline points="457.0 105.9,457.0 112.9,456.0 123.9,456.0 128.9,455.0 136.9,455.0 139.9,455.0 141.9" style="fill:none;stroke:#ffffff;stroke-width:2"/>
<polyline points="450.0 125.9,452.0 125.9,455.0 124.9,460.0 123.9,462.0 122.9,468.0 119.9" style="fill:none;stroke:#ffffff;stroke-width:2"/>
<polyline points="480.0 99.9,481.0 102.9,481.0 107.9,480.0 111.9,480.0 115.9,479.0 119.9,478.0 124.9,477.0 131.9,477.0 135.9,479.0 134.9,480.0 132.9,483.0 128.9,484.0 126.9,486.0 123.9,489.0 124.9,489.0 128.9,490.0 138.9,490.0 140.9" style="fill:none;stroke:#ffffff;stroke-width:2"/>
<polyline points="589.0 87.9,586.0 86.0,583.0 87.0,581.0 87.9,577.0 91.9,574.0 95.9,569.0 105.9,564.0 118.9,562.0 124.9,560.0 131.9,558.0 136.9,558.0 141.9,557.0 146.9,558.0 149.9,559.0 151.9,561.0 152.9,564.0 153.9,567.0 153.9,570.0 152.9" style="fill:none;stroke:#ffffff;stroke-width:2"/>
<polyline points="882.0 70.0,884.0 72.0,887.0 74.0,892.0 77.0,895.0 79.0,897.0 82.0,899.0 84.0,901.0 87.0,903.0 88.9,904.0 92.9,905.0 95.9,906.0 99.9,907.0 104.9,907.0 108.9,908.0 113.9,908.0 118.9,907.0 126.9,905.0 134.9,903.0 136.9,902.0 139.9,900.0 140.9,897.0 141.9,896.0 140.9" style="fill:none;stroke:#ffffff;stroke-width:2"/>
<polyline points="583.0 140.9,582.0 137.9,581.0 132.9,580.0 130.9,580.0 126.9,581.0 120.9,581.0 117.9,582.0 111.9,582.0 107.9,583.0 99.9,583.0 95.9,584.0 93.9,585.0 96.9,586.0 98.9,588.0 103.9,590.0 107.9,591.0 110.9,595.0 121.9,596.0 124.9,597.0 126.9,598.0 129.9,599.0 131.9,600.0 134.9,601.0 136.9,603.0 138.9,604.0 140.9,604.0 135.9,603.0 130.9,603.0 127.9,604.0 100.9,605.0 96.9" style="fill:none;stroke:#ffffff;stroke-width:2"/>
<polyline points="612.0 129.9,614.0 127.9,614.0 123.9,611.0 124.9,610.0 126.9,610.0 129.9,611.0 134.9,612.0 136.9,614.0 139.9,617.0 140.9,621.0 138.9,622.0 135.9,622.0 132.9,621.0 129.9,621.0 126.9,619.0 124.9,618.0 122.9,616.0 120.9" style="fill:none;stroke:#ffffff;stroke-width:2"/>
<polyline points="644.0 126.9,642.0 124.9,639.0 123.9,637.0 125.9,635.0 128.9,634.0 130.9,633.0 134.9,633.0 137.9,634.0 139.9,636.0 140.9,641.0 139.9,643.0 136.9,644.0 134.9,646.0 129.9,647.0 126.9,647.0 123.9,648.0 119.9,649.0 116.9,649.0 112.9,650.0 109.9,650.0 106.9,651.0 102.9,650.0 107.9,650.0 110.9,649.0 114.9,647.0 121.9,646.0 127.9,647.0 130.9,649.0 132.9" style="fill:none;stroke:#ffffff;stroke-width:2"/>
<polyline points="657.0 125.9,656.0 128.9,659.0 131.9,663.0 131.9,665.0 130.9,667.0 128.9,668.0 125.9,668.0 121.9,666.0 119.9,663.0 120.9,661.0 122.9,657.0 128.9,653.0 135.9,652.0 137.9,652.0 141.9,655.0 143.9,659.0 143.9,661.0 142.9" style="fill:none;stroke:#ffffff;stroke-width:2"/>
<polyline points="691.0 114.9,694.0 115.9,699.0 115.9,702.0 114.9,704.0 113.9,707.0 112.9,708.0 111.9" style="fill:none;stroke:#ffffff;stroke-width:2"/>
<polyline points="700.0 100.9,699.0 102.9,698.0 107.9,698.0 110.9,697.0 114.9,697.0 118.9,698.0 124.9,698.0 127.9,699.0 131.9" style="fill:none;stroke:#ffffff;stroke-width:2"/>
<polyline points="727.0 109.9,726.0 113.9,727.0 118.9,728.0 125.9,729.0 128.9,730.0 134.9,729.0 135.9" style="fill:none;stroke:#ffffff;stroke-width:2"/>
<polyline points="733.0 111.9,735.0 109.9,740.0 108.9,743.0 107.9,745.0 106.9,748.0 105.9,750.0 104.9" style="fill:none;stroke:#ffffff;stroke-width:2"/>
<polyline points="732.0 126.9,734.0 127.9,736.0 127.9,741.0 126.9,743.0 125.9" style="fill:none;stroke:#ffffff;stroke-width:2"/>
<polyline points="728.0 143.9,729.0 145.9,735.0 144.9,737.0 143.9,740.0 142.9" style="fill:none;stroke:#ffffff;stroke-width:2"/>
<polyline points="760.0 118.9,762.0 122.9,765.0 125.9,768.0 129.9,770.0 131.9,777.0 139.9,779.0 140.9" style="fill:none;stroke:#ffffff;stroke-width:2"/>
<polyline points="781.0 115.9,778.0 117.9,775.0 120.9,770.0 127.9,768.0 130.9,766.0 132.9,765.0 134.9,764.0 136.9" style="fill:none;stroke:#ffffff;stroke-width:2"/>
<polyline points="792.0 117.9,792.0 121.9,791.0 125.9,791.0 130.9,790.0 132.9,790.0 136.9,791.0 139.9,793.0 134.9,794.0 130.9,795.0 124.9,796.0 120.9,796.0 117.9,797.0 114.9,800.0 115.9,802.0 117.9,804.0 118.9,803.0 121.9,800.0 122.9,797.0 124.9,794.0 124.9,791.0 123.9" style="fill:none;stroke:#ffffff;stroke-width:2"/>
<polyline points="814.0 120.9,814.0 124.9,813.0 127.9,812.0 133.9,814.0 130.9,815.0 128.9,817.0 123.9,818.0 121.9,819.0 117.9,820.0 115.9,824.0 112.9,827.0 112.9" style="fill:none;stroke:#ffffff;stroke-width:2"/>
<polyline points="833.0 117.9,834.0 119.9,838.0 119.9,842.0 118.9,845.0 109.9,842.0 109.9,840.0 110.9,835.0 114.9,833.0 117.9,830.0 122.9,830.0 125.9,831.0 129.9,833.0 131.9,835.0 132.9,838.0 132.9,842.0 131.9" style="fill:none;stroke:#ffffff;stroke-width:2"/>
<polyline points="874.0 105.9,872.0 106.9,870.0 106.9,868.0 108.9,866.0 109.9,865.0 111.9,863.0 113.9,865.0 115.9,867.0 116.9,870.0 117.9,872.0 120.9,871.0 123.9,869.0 125.9,866.0 127.9,863.0 128.9,861.0 129.9,858.0 130.9,856.0 130.9" style="fill:none;stroke:#ffffff;stroke-width:2"/>
<polyline points="889.0 106.9,886.0 107.9,884.0 108.9,882.0 110.9,880.0 111.9,880.0 114.9,883.0 115.9,885.0 116.9,888.0 118.9,890.0 120.9,890.0 123.9,889.0 126.9,888.0 128.9,886.0 131.9,884.0 132.9,882.0 134.9" style="fill:none;stroke:#ffffff;stroke-width:2"/>
<polyline points="150.0 41.0,148.0 39.0,148.0 37.0" style="fill:none;stroke:#ffffff;stroke-width:2"/>
<polyline points="147.0 40.0,146.0 43.0" style="fill:none;stroke:#ffffff;stroke-width:2"/>
<polyline points="150.0 42.0,148.0 42.0" style="fill:none;stroke:#ffffff;stroke-width:2"/>
<polyline points="973.0 112.9,972.0 109.9,971.0 114.9,971.0 118.9,970.0 126.9,970.0 129.9,969.0 137.9,969.0 140.9,970.0 143.9,970.0 139.9,971.0 132.9,971.0 129.9,972.0 124.9,972.0 121.9,973.0 113.9,974.0 109.9,975.0 102.9,978.0 102.9,981.0 104.9,983.0 105.9,984.0 107.9,986.0 108.9,989.0 110.9,991.0 111.9,990.0 113.9,985.0 117.9,983.0 118.9,982.0 120.9,980.0 121.9,977.0 123.9,975.0 125.9,977.0 128.9,979.0 129.9,982.0 131.9,984.0 132.9,987.0 134.9,989.0 135.9,992.0 137.9" style="fill:none;stroke:#ffffff;stroke-width:2"/>
<polyline points="1018.0 121.9,1016.0 119.9,1013.0 120.9,1012.0 122.9,1010.0 127.9,1010.0 131.9,1011.0 134.9,1013.0 136.9,1015.0 136.9,1018.0 135.9,1020.0 132.9,1020.0 128.9,1019.0 126.9,1017.0 123.9,1013.0 121.9,1012.0 121.9" style="fill:none;stroke:#ffffff;stroke-width:2"/>
<polyline points="1036.0 105.9,1038.0 107.9,1039.0 110.9,1039.0 113.9,1038.0 129.9,1038.0 134.9,1039.0 137.9" style="fill:none;stroke:#ffffff;stroke-width:2"/>
<polyline points="1048.0 124.9,1049.0 127.9,1052.0 128.9,1054.0 127.9,1056.0 124.9,1056.0 120.9,1055.0 118.9,1050.0 119.9,1049.0 121.9,1046.0 126.9,1045.0 130.9,1046.0 133.9,1047.0 135.9,1049.0 137.9,1051.0 137.9" style="fill:none;stroke:#ffffff;stroke-width:2"/>
<polyline points="1074.0 114.9,1071.0 113.9,1069.0 114.9,1067.0 116.9,1068.0 119.9,1070.0 120.9,1073.0 121.9,1075.0 123.9,1074.0 126.9,1073.0 128.9,1071.0 130.9,1065.0 136.9" style="fill:none;stroke:#ffffff;stroke-width:2"/>
<polyline points="964.0 157.9,967.0 157.9,973.0 156.9,975.0 155.9,977.0 155.9,980.0 154.9,986.0 153.9,989.0 153.9,992.0 152.9,995.0 152.9,1016.0 151.9,1020.0 151.9,1023.0 150.9,1027.0 150.9,1043.0 151.9,1048.0 151.9,1081.0 151.9" style="fill:none;stroke:#ffffff;stroke-width:2"/>
<polyline points="988.0 168.9,985.0 167.9,981.0 167.9,978.0 169.9,976.0 170.9,974.0 172.9,972.0 176.9,970.0 181.9,970.0 187.9,971.0 197.9,972.0 199.9,975.0 199.9,978.0 198.9" style="fill:none;stroke:#ffffff;stroke-width:2"/>
<polyline points="1002.0 184.9,1002.0 180.9,1001.0 175.9,998.0 175.9,997.0 177.9,995.0 180.9,995.0 185.9,997.0 189.9,999.0 191.9,1001.0 190.9,1003.0 188.9,1004.0 186.9,1005.0 182.9,1004.0 178.9,1002.0 176.9,999.0 176.9,998.0 177.9" style="fill:none;stroke:#ffffff;stroke-width:2"/>
<polyline points="1019.0 176.9,1020.0 179.9,1020.0 182.9,1019.0 184.9,1021.0 183.9,1022.0 181.9,1024.0 176.9,1026.0 174.9,1027.0 177.9,1028.0 179.9,1028.0 182.9,1030.0 180.9,1033.0 175.9,1035.0 173.9,1037.0 172.9,1039.0 174.9,1039.0 177.9,1039.0 186.9" style="fill:none;stroke:#ffffff;stroke-width:2"/>
<polyline points="1048.0 172.9,1048.0 177.9,1049.0 175.9,1049.0 172.9,1050.0 170.9,1054.0 170.9,1056.0 171.9,1059.0 173.9,1061.0 176.9,1059.0 179.9,1056.0 181.9,1051.0 181.9,1046.0 180.9" style="fill:none;stroke:#ffffff;stroke-width:2"/>
<polyline points="1052.0 174.9,1052.0 177.9,1051.0 181.9,1050.0 184.9,1050.0 187.9,1049.0 189.9,1049.0 192.9,1049.0 204.9" style="fill:none;stroke:#ffffff;stroke-width:2"/>
<polyline points="1076.0 172.9,1075.0 169.9,1073.0 170.9,1070.0 173.9,1069.0 176.9,1069.0 180.9,1071.0 182.9,1075.0 177.9,1076.0 175.9,1078.0 169.9,1078.0 174.9,1079.0 178.9,1079.0 182.9,1080.0 184.9,1081.0 185.9" style="fill:none;stroke:#ffffff;stroke-width:2"/>
<polyline points="1096.0 172.9,1093.0 175.9,1092.0 178.9,1091.0 182.9,1093.0 180.9,1094.0 178.9,1100.0 167.9,1103.0 166.9,1104.0 170.9,1103.0 173.9,1102.0 177.9,1102.0 181.9" style="fill:none;stroke:#ffffff;stroke-width:2"/>
<polyline points="1119.0 166.9,1118.0 169.9,1118.0 173.9,1120.0 176.9,1123.0 177.9,1127.0 176.9,1128.0 173.9,1128.0 169.9,1129.0 175.9,1130.0 179.9,1130.0 183.9,1131.0 186.9,1130.0 190.9,1128.0 196.9,1126.0 197.9,1125.0 199.9,1122.0 200.9" style="fill:none;stroke:#ffffff;stroke-width:2"/>
<polyline points="975.0 241.9,977.0 240.9,978.0 237.9,979.0 231.9,980.0 229.9,981.0 225.9,982.0 223.9,985.0 218.9,987.0 215.9,991.0 216.9,993.0 218.9,994.0 220.9,995.0 224.9,995.0 227.9,996.0 229.9,997.0 236.9,998.0 239.9,998.0 243.9,999.0 244.9" style="fill:none;stroke:#ffffff;stroke-width:2"/>
<polyline points="982.0 233.9,985.0 233.9,988.0 232.9,990.0 231.9,994.0 230.9,997.0 230.9,999.0 229.9" style="fill:none;stroke:#ffffff;stroke-width:2"/>
<polyline points="1024.0 227.9,1024.0 223.9,1021.0 222.9,1017.0 222.9,1015.0 223.9,1013.0 225.9,1012.0 228.9,1011.0 232.9,1014.0 236.9,1019.0 234.9,1021.0 233.9,1022.0 230.9,1023.0 228.9,1025.0 225.9,1026.0 222.9,1027.0 217.9,1028.0 215.9,1028.0 211.9,1029.0 208.9,1029.0 211.9,1028.0 226.9,1028.0 229.9,1029.0 237.9" style="fill:none;stroke:#ffffff;stroke-width:2"/>
<polyline points="1044.0 223.9,1043.0 225.9,1042.0 228.9,1042.0 232.9,1044.0 231.9,1045.0 228.9,1047.0 225.9,1048.0 223.9,1049.0 227.9,1050.0 230.9,1051.0 228.9,1053.0 225.9,1054.0 222.9,1055.0 220.9,1057.0 217.9,1059.0 216.9,1060.0 219.9,1060.0 223.9,1060.0 230.9" style="fill:none;stroke:#ffffff;stroke-width:2"/>
<polyline points="1071.0 221.9,1071.0 225.9,1071.0 229.9" style="fill:none;stroke:#ffffff;stroke-width:2"/>
<polyline points="1076.0 210.9,1075.0 207.9,1076.0 210.9" style="fill:none;stroke:#ffffff;stroke-width:2"/>
<polyline points="1093.0 213.9,1092.0 216.9,1092.0 221.9,1091.0 223.9,1090.0 227.9,1092.0 224.9,1093.0 220.9,1094.0 218.9,1098.0 213.9,1101.0 214.9,1102.0 218.9,1103.0 223.9,1103.0 227.9,1103.0 231.9" style="fill:none;stroke:#ffffff;stroke-width:2"/>
<polyline points="983.0 284.8,984.0 281.8,985.0 277.8,987.0 272.8,988.0 269.8,990.0 266.8,991.0 263.8,992.0 261.9,995.0 258.9,996.0 260.9,996.0 263.8,997.0 280.8,998.0 278.8,1001.0 273.8,1002.0 269.8,1004.0 266.8,1005.0 262.8,1007.0 259.9,1009.0 257.9,1010.0 255.9,1013.0 254.9,1014.0 257.9,1014.0 260.9,1015.0 279.8,1015.0 281.8" style="fill:none;stroke:#ffffff;stroke-width:2"/>
<polyline points="1040.0 264.8,1039.0 261.9,1036.0 263.8,1035.0 265.8,1032.0 274.8,1032.0 277.8,1034.0 280.8,1036.0 279.8,1038.0 277.8,1039.0 274.8,1040.0 272.8,1041.0 269.8,1043.0 265.8,1043.0 270.8,1044.0 275.8,1044.0 278.8,1045.0 279.8" style="fill:none;stroke:#ffffff;stroke-width:2"/>
<polyline points="1051.0 264.8,1051.0 269.8,1052.0 276.8,1053.0 274.8,1055.0 267.8,1056.0 265.8,1058.0 260.9,1059.0 258.9,1062.0 257.9,1062.0 260.9,1063.0 262.8,1063.0 267.8,1062.0 269.8,1062.0 272.8,1062.0 275.8" style="fill:none;stroke:#ffffff;stroke-width:2"/>
<polyline points="1071.0 259.9,1071.0 264.8,1072.0 269.8,1073.0 272.8,1076.0 272.8,1078.0 270.8,1079.0 268.8,1081.0 265.8,1081.0 269.8,1082.0 273.8,1082.0 277.8" style="fill:none;stroke:#ffffff;stroke-width:2"/>
<polyline points="1114.0 246.9,1112.0 243.9,1109.0 244.9,1106.0 246.9,1104.0 247.9,1103.0 250.9,1101.0 253.9,1100.0 256.9,1099.0 260.9,1099.0 266.8,1100.0 272.8,1101.0 273.8" style="fill:none;stroke:#ffffff;stroke-width:2"/>
<polyline points="1120.0 258.9,1118.0 256.9,1115.0 255.9,1111.0 255.9,1109.0 256.9,1105.0 256.9,1100.0 257.9,1097.0 256.9" style="fill:none;stroke:#ffffff;stroke-width:2"/>
<polyline points="1135.0 253.9,1133.0 251.9,1128.0 252.9,1127.0 254.9,1125.0 257.9,1124.0 259.9,1123.0 263.8,1124.0 265.8,1125.0 269.8,1128.0 268.8,1129.0 266.8,1133.0 260.9,1133.0 263.8,1134.0 271.8,1135.0 272.8" style="fill:none;stroke:#ffffff;stroke-width:2"/>
<polyline points="1154.0 248.9,1153.0 245.9,1150.0 246.9,1148.0 247.9,1147.0 249.9,1144.0 256.9,1143.0 259.9,1142.0 263.8,1143.0 267.8,1144.0 270.8,1146.0 271.8" style="fill:none;stroke:#ffffff;stroke-width:2"/>
<polyline points="1165.0 242.9,1164.0 245.9,1164.0 249.9,1163.0 256.9,1163.0 259.9,1163.0 267.8" style="fill:none;stroke:#ffffff;stroke-width:2"/>
<polyline points="1157.0 253.9,1160.0 252.9,1165.0 251.9,1168.0 251.9" style="fill:none;stroke:#ffffff;stroke-width:2"/>
<polyline points="1188.0 247.9,1185.0 249.9,1184.0 252.9,1183.0 254.9,1182.0 257.9,1182.0 261.9,1183.0 263.8,1186.0 265.8,1187.0 263.8,1192.0 254.9,1193.0 251.9,1194.0 253.9,1194.0 258.9,1195.0 263.8" style="fill:none;stroke:#ffffff;stroke-width:2"/>
<polyline points="1210.0 247.9,1209.0 250.9,1209.0 254.9,1208.0 257.9,1207.0 259.9,1207.0 256.9,1208.0 254.9,1210.0 249.9,1211.0 246.9,1212.0 244.9,1215.0 243.9" style="fill:none;stroke:#ffffff;stroke-width:2"/>
<polyline points="1218.0 247.9,1221.0 249.9,1225.0 249.9,1227.0 247.9,1228.0 245.9,1228.0 242.9,1227.0 240.9,1224.0 241.9,1221.0 244.9,1219.0 249.9,1218.0 254.9,1218.0 257.9,1219.0 259.9,1221.0 262.8" style="fill:none;stroke:#ffffff;stroke-width:2"/>
<polyline points="1231.0 252.9,1230.0 255.9,1231.0 258.9,1231.0 262.8,1233.0 258.9,1234.0 254.9,1235.0 251.9,1236.0 249.9,1237.0 245.9,1239.0 242.9,1240.0 240.9,1243.0 239.9,1247.0 237.9,1252.0 238.9,1256.0 238.9,1259.0 240.9" style="fill:none;stroke:#ffffff;stroke-width:2"/>
<polyline points="980.0 308.8,978.0 310.8,977.0 312.8,977.0 316.8,976.0 319.8,977.0 322.8,978.0 326.8,980.0 328.8,983.0 327.8,986.0 324.8,987.0 321.8,988.0 319.8,990.0 314.8,990.0 311.8,991.0 308.8" style="fill:none;stroke:#ffffff;stroke-width:2"/>
<polyline points="1018.0 312.8,1016.0 310.8,1013.0 311.8,1010.0 311.8,1008.0 312.8,1006.0 314.8,1008.0 316.8,1013.0 317.8,1015.0 317.8,1017.0 319.8,1016.0 321.8,1014.0 324.8,1012.0 325.8,1008.0 325.8,1006.0 325.8" style="fill:none;stroke:#ffffff;stroke-width:2"/>
<polyline points="1032.0 313.8,1035.0 314.8,1037.0 312.8,1038.0 309.8,1036.0 307.8,1033.0 308.8,1028.0 311.8,1027.0 313.8,1026.0 316.8,1025.0 321.8,1026.0 323.8,1027.0 327.8,1030.0 328.8,1033.0 328.8" style="fill:none;stroke:#ffffff;stroke-width:2"/>
<polyline points="1050.0 313.8,1051.0 315.8,1051.0 319.8,1050.0 321.8,1049.0 324.8,1049.0 321.8,1050.0 316.8,1052.0 313.8,1054.0 311.8,1055.0 309.8,1057.0 308.8,1063.0 306.8,1066.0 306.8,1070.0 306.8" style="fill:none;stroke:#ffffff;stroke-width:2"/>
<polyline points="648.0 200.9,646.0 201.9,642.0 201.9,639.0 202.9,636.0 204.9,634.0 207.9,632.0 212.9,631.0 214.9,631.0 218.9,632.0 225.9,634.0 229.9,636.0 231.9,640.0 232.9,643.0 232.9,647.0 231.9,650.0 230.9,652.0 229.9,654.0 228.9" style="fill:none;stroke:#ffffff;stroke-width:2"/>
<polyline points="676.0 210.9,673.0 209.9,669.0 211.9,668.0 213.9,667.0 216.9,666.0 221.9,667.0 224.9,669.0 228.9,673.0 228.9,675.0 227.9,676.0 225.9,676.0 221.9,675.0 216.9,674.0 214.9,673.0 211.9,670.0 209.9,669.0 208.9" style="fill:none;stroke:#ffffff;stroke-width:2"/>
<polyline points="689.0 207.9,688.0 211.9,688.0 214.9,687.0 217.9,687.0 221.9,688.0 218.9,689.0 216.9,691.0 210.9,693.0 207.9,694.0 209.9,694.0 213.9,695.0 220.9,697.0 219.9,698.0 216.9,700.0 213.9,701.0 211.9,703.0 213.9,703.0 217.9,702.0 220.9,702.0 224.9" style="fill:none;stroke:#ffffff;stroke-width:2"/>
<polyline points="717.0 207.9,718.0 213.9,718.0 217.9,719.0 231.9,719.0 228.9,720.0 205.9,721.0 200.9,722.0 198.9,725.0 197.9,729.0 198.9,732.0 199.9,735.0 202.9,737.0 206.9,736.0 209.9,735.0 211.9,733.0 214.9,731.0 215.9,728.0 216.9,726.0 217.9,722.0 216.9,720.0 216.9" style="fill:none;stroke:#ffffff;stroke-width:2"/>
<polyline points="625.0 249.9,623.0 250.9,626.0 250.9,629.0 249.9,632.0 249.9,634.0 248.9,638.0 247.9,641.0 246.9,644.0 246.9,665.0 245.9,669.0 245.9,675.0 246.9,677.0 245.9,681.0 245.9,688.0 244.9,692.0 244.9,712.0 243.9,716.0 243.9,721.0 244.9,724.0 244.9,736.0 243.9,740.0 243.9,744.0 242.9,748.0 242.9,753.0 242.9" style="fill:none;stroke:#ffffff;stroke-width:2"/>
<polyline points="641.0 265.8,640.0 268.8,640.0 272.8,639.0 274.8,639.0 278.8,638.0 280.8,638.0 284.8,639.0 281.8,640.0 277.8,640.0 274.8,641.0 272.8,642.0 267.8,643.0 265.8,644.0 261.9,646.0 258.9,649.0 259.9,652.0 261.9,653.0 263.8,655.0 270.8,655.0 275.8,654.0 284.8,654.0 288.8" style="fill:none;stroke:#ffffff;stroke-width:2"/>
<polyline points="672.0 271.8,673.0 268.8,670.0 269.8,668.0 271.8,667.0 277.8,667.0 280.8,669.0 285.8,671.0 284.8,673.0 281.8,674.0 278.8,676.0 270.8,677.0 272.8,678.0 276.8,679.0 279.8,682.0 282.8" style="fill:none;stroke:#ffffff;stroke-width:2"/>
<polyline points="688.0 265.8,688.0 269.8,687.0 272.8,687.0 276.8,688.0 273.8,690.0 270.8,691.0 268.8,692.0 273.8,693.0 276.8,694.0 274.8,695.0 270.8,696.0 268.8,698.0 265.8,699.0 263.8,700.0 266.8,700.0 271.8,701.0 279.8" style="fill:none;stroke:#ffffff;stroke-width:2"/>
<polyline points="707.0 269.8,708.0 271.8,710.0 274.8,714.0 274.8,716.0 273.8,718.0 270.8,719.0 268.8,720.0 265.8,719.0 260.9,715.0 260.9,712.0 263.8,711.0 265.8,709.0 267.8,708.0 271.8,707.0 274.8,707.0 277.8,708.0 284.8,710.0 286.8,714.0 286.8,715.0 284.8" style="fill:none;stroke:#ffffff;stroke-width:2"/>
<polyline points="655.0 308.8,655.0 312.8,654.0 317.8,654.0 322.8,653.0 325.8,652.0 330.8,652.0 332.8" style="fill:none;stroke:#ffffff;stroke-width:2"/>
<polyline points="641.0 308.8,645.0 308.8,664.0 309.8" style="fill:none;stroke:#ffffff;stroke-width:2"/>
<polyline points="639.0 335.8,643.0 335.8,650.0 334.8,653.0 334.8,665.0 333.8" style="fill:none;stroke:#ffffff;stroke-width:2"/>
<polyline points="671.0 318.8,671.0 322.8,670.0 330.8,672.0 328.8,673.0 326.8,674.0 322.8,675.0 320.8,677.0 317.8,680.0 317.8,682.0 319.8,683.0 322.8,683.0 326.8,684.0 330.8,684.0 332.8" style="fill:none;stroke:#ffffff;stroke-width:2"/>
<polyline points="701.0 317.8,701.0 314.8,700.0 312.8,698.0 314.8,696.0 318.8,695.0 322.8,695.0 329.8,697.0 331.8,698.0 329.8,700.0 322.8,701.0 319.8,702.0 312.8,703.0 308.8,703.0 304.8,704.0 301.8,704.0 296.8,705.0 298.8,705.0 301.8,704.0 304.8,704.0 308.8,703.0 315.8,703.0 318.8,704.0 321.8,704.0 325.8,706.0 327.8" style="fill:none;stroke:#ffffff;stroke-width:2"/>
<polyline points="711.0 315.8,710.0 318.8,710.0 322.8,711.0 327.8,714.0 328.8,717.0 326.8,718.0 323.8,719.0 321.8,721.0 316.8,722.0 312.8,723.0 318.8,724.0 321.8,725.0 323.8,727.0 323.8" style="fill:none;stroke:#ffffff;stroke-width:2"/>
<polyline points="745.0 309.8,744.0 307.8,742.0 307.8,739.0 308.8,734.0 309.8,731.0 310.8,732.0 312.8,734.0 314.8,738.0 316.8,740.0 318.8,741.0 322.8,739.0 325.8,737.0 327.8,734.0 328.8,731.0 328.8,730.0 327.8" style="fill:none;stroke:#ffffff;stroke-width:2"/>
<polyline points="751.0 302.8,753.0 302.8,755.0 304.8,755.0 308.8,756.0 310.8,756.0 313.8,756.0 327.8" style="fill:none;stroke:#ffffff;stroke-width:2"/>
<polyline points="744.0 317.8,747.0 317.8,749.0 316.8,755.0 316.8,757.0 315.8,760.0 314.8" style="fill:none;stroke:#ffffff;stroke-width:2"/>
<polyline points="763.0 313.8,764.0 316.8,765.0 318.8,764.0 321.8,764.0 318.8,765.0 313.8,766.0 310.8,768.0 308.8,771.0 308.8,772.0 309.8" style="fill:none;stroke:#ffffff;stroke-width:2"/>
<polyline points="776.0 309.8,775.0 312.8,775.0 316.8,776.0 318.8,779.0 319.8,781.0 317.8,783.0 314.8,785.0 309.8,786.0 306.8,785.0 309.8,786.0 313.8,787.0 316.8,789.0 319.8,790.0 321.8,791.0 324.8,793.0 327.8,792.0 329.8,789.0 333.8,787.0 333.8,785.0 334.8,783.0 334.8" style="fill:none;stroke:#ffffff;stroke-width:2"/>
<polyline points="647.0 360.8,647.0 364.8,646.0 383.8,646.0 386.8,647.0 390.8,647.0 387.8,648.0 379.8,648.0 374.8,649.0 366.8,649.0 363.8,651.0 358.8,652.0 356.8,653.0 352.8,655.0 350.8,659.0 348.8,662.0 349.8,664.0 350.8,669.0 353.8,671.0 355.8,672.0 357.8,676.0 367.8,676.0 371.8,675.0 373.8,674.0 378.8,672.0 380.8,671.0 382.8,669.0 384.8,667.0 385.8,663.0 386.8,659.0 386.8,657.0 385.8,656.0 384.8" style="fill:none;stroke:#ffffff;stroke-width:2"/>
<polyline points="684.0 369.8,680.0 372.8,679.0 377.8,680.0 380.8,682.0 383.8,684.0 385.8,688.0 383.8,689.0 381.8,689.0 377.8,688.0 375.8,687.0 371.8,685.0 368.8,682.0 367.8,681.0 366.8" style="fill:none;stroke:#ffffff;stroke-width:2"/>
<polyline points="697.0 365.8,697.0 369.8,698.0 375.8,698.0 372.8,699.0 370.8,700.0 366.8,701.0 364.8,704.0 365.8,705.0 368.8,705.0 372.8,706.0 375.8,707.0 373.8,710.0 366.8,711.0 364.8,713.0 362.8,716.0 366.8,716.0 370.8,716.0 376.8" style="fill:none;stroke:#ffffff;stroke-width:2"/>
<polyline points="731.0 357.8,729.0 359.8,728.0 362.8,727.0 364.8,726.0 367.8,726.0 371.8,728.0 373.8,730.0 372.8,731.0 369.8,732.0 365.8,733.0 367.8,733.0 370.8,734.0 374.8,735.0 377.8,737.0 377.8" style="fill:none;stroke:#ffffff;stroke-width:2"/>
<polyline points="747.0 365.8,748.0 367.8,748.0 370.8,749.0 373.8,750.0 376.8" style="fill:none;stroke:#ffffff;stroke-width:2"/>
<polyline points="750.0 347.8,751.0 347.8" style="fill:none;stroke:#ffffff;stroke-width:2"/>
<polyline points="763.0 361.8,764.0 364.8,765.0 368.8,765.0 373.8,766.0 378.8,767.0 375.8,768.0 371.8,768.0 368.8,769.0 366.8,770.0 363.8,771.0 361.8,773.0 360.8,776.0 361.8,777.0 364.8,778.0 366.8,779.0 369.8,779.0 374.8,780.0 376.8,780.0 378.8" style="fill:none;stroke:#ffffff;stroke-width:2"/>
<polyline points="656.0 411.8,655.0 414.8,655.0 419.8,656.0 421.8,656.0 424.8,657.0 426.8,660.0 431.8,664.0 433.8,667.0 431.8,669.0 427.8,672.0 419.8,673.0 417.8,674.0 413.8,674.0 411.8" style="fill:none;stroke:#ffffff;stroke-width:2"/>
<polyline points="695.0 415.8,694.0 412.8,691.0 413.8,687.0 415.8,688.0 418.8,691.0 419.8,695.0 421.8,695.0 425.8,693.0 428.8,692.0 430.8,690.0 431.8,688.0 433.8,686.0 432.8,686.0 430.8" style="fill:none;stroke:#ffffff;stroke-width:2"/>
<polyline points="706.0 417.8,709.0 418.8,713.0 418.8,716.0 416.8,715.0 413.8,714.0 411.8,711.0 411.8,707.0 412.8,706.0 414.8,705.0 418.8,704.0 420.8,705.0 424.8,707.0 427.8,711.0 428.8,713.0 428.8" style="fill:none;stroke:#ffffff;stroke-width:2"/>
<polyline points="725.0 412.8,726.0 417.8,726.0 421.8,727.0 415.8,727.0 412.8,729.0 409.8,731.0 407.8,735.0 405.8" style="fill:none;stroke:#ffffff;stroke-width:2"/>
<polyline points="762.0 405.8,760.0 404.8,758.0 404.8,755.0 405.8,753.0 406.8,754.0 408.8,758.0 412.8,762.0 418.8,761.0 421.8,758.0 422.8,754.0 422.8,751.0 422.8" style="fill:none;stroke:#ffffff;stroke-width:2"/>
<polyline points="149.0 42.0,149.0 40.0" style="fill:none;stroke:#ffffff;stroke-width:2"/>
<polyline points="338.0 245.9,338.0 241.9,340.0 238.9,341.0 236.9,342.0 232.9,344.0 230.9,345.0 228.9,347.0 223.9,349.0 220.9,351.0 218.9,354.0 219.9,355.0 221.9,356.0 225.9,357.0 228.9,357.0 231.9,358.0 233.9,358.0 236.9,359.0 239.9,359.0 244.9,360.0 246.9" style="fill:none;stroke:#ffffff;stroke-width:2"/>
<polyline points="340.0 241.9,343.0 242.9,345.0 243.9,349.0 243.9,352.0 242.9,355.0 242.9,357.0 241.9,359.0 241.9" style="fill:none;stroke:#ffffff;stroke-width:2"/>
<polyline points="385.0 229.9,383.0 228.9,378.0 231.9,377.0 234.9,375.0 237.9,374.0 241.9,375.0 244.9,377.0 246.9,380.0 246.9,381.0 244.9,384.0 237.9,385.0 234.9,386.0 228.9,387.0 224.9,388.0 221.9,389.0 214.9,390.0 210.9,390.0 214.9,391.0 233.9,391.0 236.9,392.0 239.9,393.0 242.9" style="fill:none;stroke:#ffffff;stroke-width:2"/>
<polyline points="399.0 232.9,398.0 235.9,397.0 240.9,399.0 237.9,400.0 233.9,401.0 231.9,403.0 229.9,404.0 232.9,404.0 236.9,407.0 235.9,408.0 233.9,410.0 231.9,413.0 230.9,414.0 232.9,414.0 238.9,415.0 239.9" style="fill:none;stroke:#ffffff;stroke-width:2"/>
<polyline points="423.0 233.9,422.0 237.9,423.0 239.9,424.0 243.9" style="fill:none;stroke:#ffffff;stroke-width:2"/>
<polyline points="429.0 209.9,427.0 210.9,428.0 211.9" style="fill:none;stroke:#ffffff;stroke-width:2"/>
<polyline points="440.0 226.9,439.0 228.9,439.0 231.9,440.0 239.9,442.0 235.9,447.0 227.9,450.0 226.9,452.0 226.9,454.0 231.9,454.0 234.9,454.0 245.9" style="fill:none;stroke:#ffffff;stroke-width:2"/>
<polyline points="327.0 256.9,330.0 255.9,332.0 254.9,335.0 254.9,341.0 253.9,346.0 253.9,351.0 252.9,354.0 252.9,361.0 251.9,364.0 251.9,369.0 250.9,374.0 250.9,377.0 251.9,380.0 251.9,415.0 252.9,419.0 252.9,443.0 251.9,449.0 251.9,455.0 252.9,459.0 252.9,465.0 251.9,467.0 251.9,471.0 250.9,473.0 250.9,476.0 249.9,480.0 249.9,482.0 248.9" style="fill:none;stroke:#ffffff;stroke-width:2"/>
<polyline points="350.0 269.8,351.0 273.8,351.0 277.8,352.0 287.8,353.0 291.8,354.0 293.8,355.0 296.8,359.0 296.8,360.0 294.8,362.0 292.8,363.0 288.8,368.0 272.8,368.0 269.8,369.0 267.8,370.0 265.8" style="fill:none;stroke:#ffffff;stroke-width:2"/>
<polyline points="391.0 280.8,390.0 278.8,388.0 276.8,386.0 275.8,383.0 276.8,379.0 277.8,377.0 280.8,378.0 282.8,383.0 283.8,386.0 283.8,388.0 285.8,387.0 289.8,384.0 292.8,379.0 295.8,378.0 294.8" style="fill:none;stroke:#ffffff;stroke-width:2"/>
<polyline points="395.0 284.8,397.0 283.8,399.0 283.8,401.0 282.8,403.0 282.8,406.0 280.8,408.0 278.8,407.0 275.8,405.0 275.8,402.0 277.8,400.0 281.8,398.0 288.8,398.0 291.8,400.0 293.8,403.0 293.8" style="fill:none;stroke:#ffffff;stroke-width:2"/>
<polyline points="413.0 277.8,412.0 281.8,413.0 284.8,413.0 288.8,414.0 285.8,414.0 282.8,415.0 278.8,417.0 273.8,419.0 272.8" style="fill:none;stroke:#ffffff;stroke-width:2"/>
<polyline points="426.0 275.8,427.0 277.8,427.0 282.8,428.0 285.8,428.0 282.8,429.0 280.8,429.0 277.8,430.0 274.8,431.0 272.8,434.0 269.8,435.0 272.8,435.0 277.8,435.0 286.8" style="fill:none;stroke:#ffffff;stroke-width:2"/>
<polyline points="446.0 272.8,444.0 274.8,443.0 277.8,442.0 279.8,442.0 283.8,444.0 288.8,445.0 286.8,447.0 279.8,448.0 277.8,449.0 273.8,450.0 279.8,451.0 283.8,452.0 284.8" style="fill:none;stroke:#ffffff;stroke-width:2"/>
<polyline points="458.0 277.8,457.0 279.8,457.0 284.8,458.0 286.8,458.0 283.8,459.0 281.8,460.0 276.8,462.0 274.8,461.0 279.8,461.0 284.8,460.0 286.8,462.0 285.8,463.0 280.8,464.0 277.8,467.0 273.8,469.0 271.8,470.0 269.8,472.0 271.8,473.0 274.8,473.0 277.8,473.0 279.8" style="fill:none;stroke:#ffffff;stroke-width:2"/>
<polyline points="477.0 273.8,479.0 275.8,481.0 275.8,486.0 274.8,488.0 271.8,490.0 269.8,491.0 267.8,492.0 262.8,490.0 260.9,488.0 261.9,485.0 264.8,484.0 266.8,483.0 269.8,481.0 278.8,481.0 282.8,482.0 284.8,484.0 286.8,487.0 286.8" style="fill:none;stroke:#ffffff;stroke-width:2"/>
<polyline points="365.0 324.8,364.0 327.8,364.0 330.8,363.0 333.8,364.0 336.8,364.0 340.8,365.0 336.8,366.0 329.8,367.0 325.8,368.0 319.8,369.0 315.8,369.0 312.8,371.0 309.8,372.0 307.8,379.0 309.8,381.0 310.8,386.0 311.8,388.0 312.8,391.0 314.8,392.0 316.8,391.0 318.8,388.0 319.8,380.0 321.8,377.0 321.8,371.0 320.8,370.0 319.8" style="fill:none;stroke:#ffffff;stroke-width:2"/>
<polyline points="402.0 320.8,400.0 318.8,397.0 318.8,396.0 321.8,395.0 323.8,395.0 326.8,396.0 328.8,399.0 330.8,401.0 329.8,402.0 327.8,403.0 324.8,404.0 326.8,407.0 331.8" style="fill:none;stroke:#ffffff;stroke-width:2"/>
<polyline points="422.0 316.8,421.0 313.8,418.0 314.8,416.0 316.8,414.0 319.8,417.0 320.8,420.0 320.8,423.0 322.8,424.0 325.8,423.0 327.8,420.0 329.8,418.0 331.8,416.0 332.8,413.0 331.8" style="fill:none;stroke:#ffffff;stroke-width:2"/>
<polyline points="441.0 314.8,442.0 311.8,439.0 311.8,436.0 314.8,437.0 317.8,440.0 318.8,444.0 318.8,443.0 320.8,441.0 322.8,437.0 325.8,433.0 327.8,430.0 327.8" style="fill:none;stroke:#ffffff;stroke-width:2"/>
<polyline points="455.0 309.8,455.0 314.8,456.0 318.8,456.0 321.8,458.0 323.8,460.0 320.8,461.0 317.8,462.0 315.8,464.0 312.8,466.0 310.8,467.0 315.8,466.0 318.8,466.0 322.8,469.0 320.8,471.0 318.8,472.0 316.8,474.0 313.8,475.0 311.8,477.0 310.8,479.0 308.8,480.0 306.8,482.0 305.8" style="fill:none;stroke:#ffffff;stroke-width:2"/>
<polyline points="497.0 306.8,496.0 304.8,492.0 304.8,490.0 307.8,487.0 312.8,487.0 315.8,488.0 318.8,491.0 318.8,493.0 316.8,493.0 311.8,492.0 307.8,491.0 305.8,490.0 304.8" style="fill:none;stroke:#ffffff;stroke-width:2"/>
<polyline points="501.0 308.8,501.0 313.8,500.0 317.8,500.0 314.8,501.0 307.8,502.0 305.8,504.0 303.8,507.0 301.8" style="fill:none;stroke:#ffffff;stroke-width:2"/>
<polyline points="516.0 303.8,512.0 305.8,511.0 308.8,510.0 312.8,510.0 315.8,512.0 317.8,516.0 316.8,518.0 313.8,519.0 310.8,520.0 308.8,520.0 304.8,521.0 300.8,522.0 297.8,523.0 293.8,523.0 290.8,524.0 282.8,523.0 286.8,523.0 290.8,522.0 294.8,521.0 299.8,521.0 304.8,520.0 308.8,520.0 311.8,520.0 316.8" style="fill:none;stroke:#ffffff;stroke-width:2"/>
<polyline points="358.0 373.8,361.0 373.8,364.0 372.8,366.0 370.8,367.0 368.8,367.0 364.8,366.0 361.8,364.0 360.8,361.0 361.8,359.0 364.8,358.0 366.8,357.0 371.8,356.0 374.8,356.0 377.8,357.0 380.8,358.0 384.8,359.0 386.8,361.0 387.8,364.0 388.8,366.0 388.8,368.0 387.8,370.0 387.8" style="fill:none;stroke:#ffffff;stroke-width:2"/>
<polyline points="381.0 369.8,380.0 372.8,381.0 375.8,382.0 377.8,384.0 375.8,385.0 370.8,386.0 368.8,387.0 364.8,389.0 362.8,390.0 364.8,391.0 368.8,391.0 371.8,392.0 376.8,394.0 372.8,397.0 367.8,398.0 365.8,400.0 363.8,402.0 362.8,403.0 364.8,404.0 368.8,405.0 371.8,406.0 375.8" style="fill:none;stroke:#ffffff;stroke-width:2"/>
<polyline points="420.0 360.8,418.0 358.8,416.0 361.8,415.0 364.8,414.0 366.8,414.0 370.8,415.0 373.8,417.0 375.8,422.0 369.8,423.0 366.8,423.0 369.8,424.0 371.8,425.0 374.8,427.0 376.8,428.0 376.8" style="fill:none;stroke:#ffffff;stroke-width:2"/>
<polyline points="436.0 364.8,436.0 369.8,437.0 374.8,438.0 377.8,439.0 378.8" style="fill:none;stroke:#ffffff;stroke-width:2"/>
<polyline points="440.0 345.8,441.0 346.8" style="fill:none;stroke:#ffffff;stroke-width:2"/>
<polyline points="456.0 350.8,458.0 353.8,459.0 358.8,459.0 361.8,460.0 365.8,461.0 373.8,461.0 376.8,462.0 378.8" style="fill:none;stroke:#ffffff;stroke-width:2"/>
<polyline points="767.0 191.9,763.0 194.9,762.0 196.9,761.0 200.9,760.0 202.9,759.0 206.9,758.0 209.9,757.0 214.9,754.0 219.9,752.0 222.9,751.0 225.9,750.0 227.9,749.0 228.9" style="fill:none;stroke:#ffffff;stroke-width:2"/>
<polyline points="764.0 229.9,765.0 226.9,766.0 224.9,770.0 218.9,771.0 215.9,773.0 213.9,774.0 211.9,777.0 208.9,778.0 206.9,778.0 209.9,777.0 211.9,775.0 217.9,775.0 221.9,777.0 221.9,779.0 219.9,780.0 217.9,783.0 213.9,785.0 211.9,787.0 214.9,787.0 218.9,786.0 221.9,786.0 225.9" style="fill:none;stroke:#ffffff;stroke-width:2"/>
<polyline points="798.0 220.9,795.0 219.9,793.0 221.9,792.0 223.9,792.0 227.9,796.0 226.9,799.0 222.9,802.0 219.9,803.0 222.9,803.0 226.9,804.0 226.9" style="fill:none;stroke:#ffffff;stroke-width:2"/>
<polyline points="812.0 216.9,810.0 218.9,809.0 222.9,808.0 224.9,810.0 223.9,812.0 220.9,815.0 216.9,817.0 214.9,819.0 213.9,820.0 218.9,819.0 220.9,819.0 223.9,819.0 225.9" style="fill:none;stroke:#ffffff;stroke-width:2"/>
<polyline points="828.0 217.9,827.0 220.9,827.0 225.9,830.0 226.9,832.0 224.9,836.0 219.9,837.0 217.9,839.0 214.9,841.0 212.9,841.0 217.9,842.0 220.9" style="fill:none;stroke:#ffffff;stroke-width:2"/>
<polyline points="880.0 202.9,878.0 200.9,873.0 204.9,872.0 207.9,870.0 209.9,867.0 215.9,866.0 218.9,864.0 220.9,863.0 223.9,862.0 225.9,861.0 229.9,861.0 231.9" style="fill:none;stroke:#ffffff;stroke-width:2"/>
<polyline points="874.0 220.9,871.0 218.9,869.0 218.9,860.0 219.9,856.0 219.9,855.0 220.9" style="fill:none;stroke:#ffffff;stroke-width:2"/>
<polyline points="882.0 230.9,884.0 232.9,885.0 231.9" style="fill:none;stroke:#ffffff;stroke-width:2"/>
<polyline points="1006.0 480.7,1007.0 478.7,1006.0 480.7,1005.0 483.7,1004.0 487.7,1004.0 490.7,1005.0 497.7,1006.0 499.7,1009.0 499.7,1012.0 497.7,1016.0 493.7,1018.0 492.7,1020.0 490.7,1022.0 487.7,1025.0 482.7" style="fill:none;stroke:#ffffff;stroke-width:2"/>
<polyline points="1043.0 483.7,1042.0 486.7,1041.0 490.7,1042.0 487.7,1043.0 485.7,1045.0 482.7,1046.0 480.7,1048.0 478.7,1053.0 476.7,1055.0 477.7,1057.0 477.7" style="fill:none;stroke:#ffffff;stroke-width:2"/>
<polyline points="1068.0 468.7,1069.0 472.7,1069.0 475.7,1068.0 483.7,1068.0 488.7,1069.0 491.7" style="fill:none;stroke:#ffffff;stroke-width:2"/>
<polyline points="1099.0 476.7,1098.0 474.7,1096.0 473.7,1093.0 473.7,1089.0 474.7,1087.0 475.7,1088.0 479.7,1091.0 481.7,1095.0 484.7,1097.0 487.7,1096.0 489.7,1094.0 491.7,1091.0 493.7,1087.0 493.7" style="fill:none;stroke:#ffffff;stroke-width:2"/>
<polyline points="981.0 521.7,984.0 519.7,986.0 518.7,990.0 518.7,1002.0 517.7,1006.0 517.7,1010.0 516.7,1015.0 515.7,1036.0 512.7,1040.0 511.7,1045.0 511.7,1050.0 510.7,1054.0 510.7,1068.0 509.7,1078.0 508.7,1083.0 508.7,1088.0 507.7,1093.0 507.7,1101.0 508.7,1104.0 508.7,1107.0 509.7,1111.0 510.7,1113.0 510.7" style="fill:none;stroke:#ffffff;stroke-width:2"/>
<polyline points="1029.0 530.7,1027.0 534.7,1020.0 546.7,1017.0 550.7,1013.0 554.7,1010.0 558.7,1007.0 561.7,1005.0 564.7,1000.0 571.7,998.0 573.7" style="fill:none;stroke:#ffffff;stroke-width:2"/>
<polyline points="1044.0 536.7,1045.0 539.7,1044.0 542.7,1043.0 548.7,1042.0 551.7,1042.0 554.7,1041.0 557.7,1040.0 559.7,1040.0 562.7,1039.0 563.7" style="fill:none;stroke:#ffffff;stroke-width:2"/>
<polyline points="1063.0 548.7,1062.0 545.7,1059.0 547.7,1058.0 549.7,1057.0 552.7,1058.0 556.7,1059.0 558.7,1062.0 560.7,1064.0 558.7,1065.0 554.7,1065.0 550.7,1064.0 548.7,1062.0 545.7,1060.0 544.7,1058.0 544.7" style="fill:none;stroke:#ffffff;stroke-width:2"/>
<polyline points="1090.0 543.7,1090.0 539.7,1087.0 540.7,1085.0 542.7,1084.0 544.7,1082.0 547.7,1081.0 550.7,1082.0 554.7,1084.0 555.7,1087.0 553.7,1089.0 551.7,1090.0 549.7,1091.0 546.7,1089.0 547.7,1089.0 551.7,1090.0 555.7,1091.0 558.7,1092.0 562.7,1094.0 565.7,1095.0 567.7,1096.0 570.7,1095.0 573.7,1091.0 575.7,1088.0 575.7,1085.0 574.7,1083.0 573.7,1080.0 572.7,1079.0 571.7" style="fill:none;stroke:#ffffff;stroke-width:2"/>
<polyline points="1104.0 545.7,1105.0 548.7,1105.0 553.7,1105.0 555.7" style="fill:none;stroke:#ffffff;stroke-width:2"/>
<polyline points="1130.0 541.7,1128.0 544.7,1127.0 548.7,1126.0 550.7,1125.0 553.7,1127.0 550.7,1129.0 548.7,1130.0 546.7,1133.0 542.7,1134.0 540.7,1136.0 539.7,1139.0 538.7,1141.0 540.7,1143.0 543.7,1143.0 546.7,1142.0 554.7,1142.0 557.7,1142.0 561.7" style="fill:none;stroke:#ffffff;stroke-width:2"/>
<polyline points="1012.0 595.7,1010.0 599.7,1009.0 602.7,1007.0 605.7,1005.0 609.7,1003.0 614.6,998.0 625.6,995.0 630.6,993.0 635.6,990.0 639.6,988.0 643.6,987.0 646.6,986.0 648.6,985.0 649.6" style="fill:none;stroke:#ffffff;stroke-width:2"/>
<polyline points="1031.0 618.6,1030.0 623.6,1029.0 627.6,1028.0 630.6,1027.0 632.6,1028.0 629.6,1029.0 624.6,1029.0 621.6,1030.0 618.6,1031.0 616.6,1032.0 613.6,1033.0 611.7,1034.0 608.7,1036.0 606.7,1039.0 606.7,1041.0 607.7,1043.0 608.7" style="fill:none;stroke:#ffffff;stroke-width:2"/>
<polyline points="1053.0 611.7,1055.0 612.7,1058.0 614.6,1062.0 614.6,1065.0 611.7,1066.0 608.7,1066.0 604.7,1063.0 603.7,1058.0 605.7,1057.0 607.7,1055.0 610.7,1055.0 613.6,1054.0 616.6,1054.0 619.6,1055.0 626.6,1056.0 629.6,1057.0 630.6" style="fill:none;stroke:#ffffff;stroke-width:2"/>
<polyline points="1090.0 607.7,1088.0 605.7,1086.0 606.7,1082.0 609.7,1080.0 612.7,1079.0 614.6,1078.0 617.6,1079.0 620.6,1081.0 622.6,1084.0 623.6,1087.0 620.6,1089.0 617.6,1090.0 615.6,1090.0 612.7,1089.0 615.6,1089.0 618.6,1090.0 620.6,1091.0 623.6,1092.0 625.6,1094.0 628.6,1095.0 631.6,1097.0 634.6,1098.0 636.6,1098.0 639.6,1096.0 641.6,1093.0 642.6,1088.0 643.6,1086.0 642.6,1083.0 641.6,1082.0 640.6" style="fill:none;stroke:#ffffff;stroke-width:2"/>
<polyline points="1113.0 610.7,1114.0 613.6,1114.0 616.6,1113.0 619.6,1113.0 621.6" style="fill:none;stroke:#ffffff;stroke-width:2"/>
<polyline points="1118.0 591.7,1119.0 588.7,1121.0 588.7" style="fill:none;stroke:#ffffff;stroke-width:2"/>
<polyline points="1146.0 599.7,1144.0 596.7,1140.0 597.7,1137.0 598.7,1135.0 600.7,1134.0 603.7,1135.0 605.7,1138.0 606.7,1141.0 608.7,1145.0 612.7,1145.0 615.6,1144.0 618.6,1142.0 620.6,1137.0 622.6,1135.0 621.6" style="fill:none;stroke:#ffffff;stroke-width:2"/>
<polyline points="1157.0 594.7,1158.0 600.7,1158.0 603.7,1157.0 613.6,1157.0 616.6,1156.0 619.6" style="fill:none;stroke:#ffffff;stroke-width:2"/>
<polyline points="1152.0 605.7,1154.0 603.7,1157.0 602.7,1161.0 602.7,1169.0 603.7" style="fill:none;stroke:#ffffff;stroke-width:2"/>
<polyline points="1175.0 602.7,1178.0 602.7,1183.0 601.7,1185.0 600.7,1187.0 598.7,1187.0 594.7,1185.0 593.7,1182.0 594.7,1180.0 595.7,1176.0 598.7,1175.0 600.7,1174.0 603.7,1174.0 606.7,1173.0 608.7,1174.0 612.7,1175.0 615.6,1177.0 616.6" style="fill:none;stroke:#ffffff;stroke-width:2"/>
<polyline points="1199.0 605.7,1199.0 608.7,1198.0 612.7,1198.0 615.6,1196.0 613.6,1195.0 610.7,1195.0 607.7,1196.0 602.7,1196.0 599.7,1197.0 595.7,1198.0 593.7,1200.0 591.7,1203.0 590.7,1206.0 590.7,1211.0 591.7,1214.0 592.7,1219.0 595.7,1221.0 596.7" style="fill:none;stroke:#ffffff;stroke-width:2"/>
<polyline points="66.0 229.9,64.0 233.9,64.0 237.9,65.0 243.9,66.0 246.9,68.0 248.9,70.0 245.9,71.0 243.9,74.0 238.9,75.0 235.9,77.0 233.9,78.0 231.9,81.0 226.9,80.0 225.9" style="fill:none;stroke:#ffffff;stroke-width:2"/>
<polyline points="101.0 234.9,99.0 232.9,96.0 233.9,94.0 234.9,93.0 237.9,95.0 239.9,97.0 240.9,100.0 242.9,102.0 243.9,100.0 245.9,96.0 247.9,92.0 246.9" style="fill:none;stroke:#ffffff;stroke-width:2"/>
<polyline points="117.0 240.9,120.0 241.9,125.0 239.9,126.0 237.9,128.0 234.9,127.0 229.9,122.0 230.9,119.0 233.9,118.0 235.9,117.0 239.9,117.0 242.9,118.0 244.9,122.0 249.9" style="fill:none;stroke:#ffffff;stroke-width:2"/>
<polyline points="136.0 234.9,137.0 237.9,138.0 241.9,138.0 244.9,139.0 235.9,140.0 233.9,142.0 230.9,145.0 229.9,148.0 229.9,150.0 229.9" style="fill:none;stroke:#ffffff;stroke-width:2"/>
<polyline points="54.0 261.9,57.0 260.9,60.0 260.9,72.0 261.9,76.0 261.9,96.0 260.9,101.0 260.9,111.0 259.9,116.0 259.9,125.0 258.9,129.0 258.9,174.0 258.9" style="fill:none;stroke:#ffffff;stroke-width:2"/>
<polyline points="57.0 287.8,55.0 290.8,55.0 293.8,54.0 296.8,53.0 301.8,53.0 298.8,54.0 293.8,55.0 290.8,55.0 287.8,57.0 285.8,60.0 286.8,63.0 288.8,65.0 291.8,66.0 295.8,67.0 298.8,67.0 303.8,68.0 307.8" style="fill:none;stroke:#ffffff;stroke-width:2"/>
<polyline points="86.0 291.8,85.0 288.8,82.0 288.8,80.0 290.8,79.0 292.8,79.0 296.8,81.0 298.8,83.0 297.8,85.0 295.8,86.0 293.8,88.0 288.8,89.0 285.8,89.0 288.8,90.0 295.8,91.0 298.8" style="fill:none;stroke:#ffffff;stroke-width:2"/>
<polyline points="105.0 287.8,105.0 291.8,104.0 294.8,106.0 292.8,107.0 289.8,109.0 287.8,111.0 291.8,114.0 289.8,116.0 286.8,119.0 282.8,121.0 284.8,122.0 287.8,122.0 291.8,122.0 293.8" style="fill:none;stroke:#ffffff;stroke-width:2"/>
<polyline points="129.0 289.8,132.0 291.8,136.0 290.8,138.0 288.8,140.0 284.8,138.0 281.8,134.0 282.8,133.0 284.8,131.0 286.8,130.0 289.8,129.0 295.8,128.0 298.8,129.0 300.8,129.0 303.8,130.0 305.8,133.0 307.8,135.0 307.8" style="fill:none;stroke:#ffffff;stroke-width:2"/>
<polyline points="57.0 333.8,60.0 335.8,63.0 336.8,66.0 333.8,67.0 330.8,65.0 328.8,62.0 329.8,60.0 331.8,57.0 335.8,57.0 338.8,59.0 345.8,61.0 347.8,63.0 348.8,66.0 348.8" style="fill:none;stroke:#ffffff;stroke-width:2"/>
<polyline points="81.0 328.8,80.0 332.8,80.0 335.8,82.0 333.8,84.0 330.8,87.0 326.8,89.0 329.8,89.0 333.8,90.0 337.8,92.0 336.8,93.0 334.8,95.0 331.8,97.0 330.8,99.0 328.8,102.0 329.8,104.0 333.8,104.0 337.8,104.0 345.8" style="fill:none;stroke:#ffffff;stroke-width:2"/>
<polyline points="123.0 331.8,122.0 328.8,119.0 330.8,117.0 333.8,116.0 335.8,115.0 339.8,118.0 340.8,120.0 338.8,121.0 336.8,124.0 331.8,125.0 336.8,126.0 339.8,127.0 343.8" style="fill:none;stroke:#ffffff;stroke-width:2"/>
<polyline points="137.0 331.8,138.0 334.8,139.0 336.8,139.0 339.8" style="fill:none;stroke:#ffffff;stroke-width:2"/>
<polyline points="159.0 314.8,160.0 316.8,162.0 322.8,162.0 325.8,162.0 339.8" style="fill:none;stroke:#ffffff;stroke-width:2"/>
<polyline points="56.0 378.8,57.0 381.8,57.0 384.8,58.0 382.8,58.0 378.8,59.0 376.8,60.0 373.8,61.0 371.8,64.0 370.8,67.0 370.8,72.0 371.8,74.0 372.8,77.0 373.8,79.0 375.8,77.0 378.8,73.0 382.8,70.0 384.8,68.0 385.8,66.0 385.8" style="fill:none;stroke:#ffffff;stroke-width:2"/>
<polyline points="61.0 384.8,61.0 387.8,62.0 399.8,62.0 403.8,62.0 405.8" style="fill:none;stroke:#ffffff;stroke-width:2"/>
<polyline points="97.0 377.8,95.0 375.8,91.0 376.8,89.0 377.8,88.0 379.8,87.0 382.8,87.0 389.8,90.0 389.8,91.0 387.8,94.0 382.8,95.0 380.8,96.0 385.8,98.0 389.8,100.0 389.8" style="fill:none;stroke:#ffffff;stroke-width:2"/>
<polyline points="124.0 366.8,120.0 367.8,117.0 368.8,115.0 369.8,114.0 372.8,117.0 373.8,119.0 375.8,121.0 376.8,121.0 379.8,120.0 381.8,118.0 384.8,116.0 386.8,114.0 387.8,111.0 387.8,110.0 386.8" style="fill:none;stroke:#ffffff;stroke-width:2"/>
<polyline points="141.0 370.8,140.0 368.8,136.0 368.8,133.0 369.8,135.0 370.8,140.0 373.8,141.0 375.8,140.0 377.8,138.0 380.8,136.0 382.8,133.0 383.8,129.0 383.8,128.0 382.8" style="fill:none;stroke:#ffffff;stroke-width:2"/>
<polyline points="149.0 363.8,151.0 364.8,152.0 366.8,153.0 370.8,155.0 375.8,157.0 374.8,158.0 371.8,159.0 369.8,162.0 364.8,164.0 366.8,166.0 370.8,167.0 373.8,169.0 371.8,170.0 367.8,171.0 365.8,173.0 362.8,174.0 360.8,175.0 359.8" style="fill:none;stroke:#ffffff;stroke-width:2"/>
<polyline points="196.0 361.8,194.0 358.8,191.0 357.8,189.0 358.8,187.0 360.8,186.0 362.8,185.0 365.8,185.0 369.8,186.0 373.8,189.0 374.8,192.0 371.8,193.0 369.8,195.0 364.8,196.0 361.8,197.0 357.8,198.0 354.8,198.0 351.8,199.0 345.8,199.0 341.8,200.0 338.8,199.0 340.8,199.0 345.8,198.0 351.8,198.0 355.8,197.0 358.8,197.0 361.8,196.0 367.8,197.0 368.8" style="fill:none;stroke:#ffffff;stroke-width:2"/>
<polyline points="66.0 426.8,66.0 422.8,65.0 433.8,65.0 436.8,64.0 447.7,64.0 451.7,64.0 453.7" style="fill:none;stroke:#ffffff;stroke-width:2"/>
<polyline points="67.0 421.8,69.0 422.8,75.0 423.8,79.0 422.8,82.0 421.8,85.0 420.8" style="fill:none;stroke:#ffffff;stroke-width:2"/>
<polyline points="66.0 435.8,68.0 437.8,71.0 437.8,74.0 438.7,77.0 438.7,79.0 438.7" style="fill:none;stroke:#ffffff;stroke-width:2"/>
<polyline points="66.0 455.7,69.0 456.7,73.0 456.7,76.0 455.7,78.0 454.7,81.0 453.7" style="fill:none;stroke:#ffffff;stroke-width:2"/>
<polyline points="92.0 436.8,92.0 440.7,93.0 443.7,94.0 441.7,95.0 437.8,97.0 433.8,99.0 430.8,100.0 433.8,99.0 436.8,101.0 437.8,102.0 435.8,104.0 433.8,105.0 431.8,108.0 428.8,112.0 428.8,113.0 432.8,113.0 437.8,113.0 439.7" style="fill:none;stroke:#ffffff;stroke-width:2"/>
<polyline points="124.0 428.8,124.0 432.8,123.0 446.7,123.0 442.7,124.0 430.8,125.0 426.8,126.0 423.8,128.0 419.8,130.0 418.8,133.0 420.8,135.0 422.8,137.0 423.8,139.0 426.8,136.0 428.8,132.0 429.8,128.0 429.8,125.0 428.8,123.0 426.8" style="fill:none;stroke:#ffffff;stroke-width:2"/>
<polyline points="151.0 408.8,152.0 411.8,152.0 416.8,151.0 422.8,151.0 425.8,151.0 434.8" style="fill:none;stroke:#ffffff;stroke-width:2"/>
<polyline points="165.0 417.8,162.0 416.8,160.0 417.8,159.0 419.8,158.0 423.8,158.0 428.8,159.0 431.8,160.0 433.8,162.0 432.8,164.0 430.8,165.0 427.8,164.0 423.8,162.0 418.8,160.0 416.8,158.0 416.8" style="fill:none;stroke:#ffffff;stroke-width:2"/>
<polyline points="177.0 411.8,176.0 413.8,176.0 418.8,177.0 421.8,179.0 424.8,183.0 424.8,185.0 421.8,187.0 416.8,188.0 413.8,188.0 417.8,189.0 419.8,190.0 423.8,191.0 426.8,192.0 430.8,193.0 432.8,195.0 435.8,194.0 439.7,193.0 441.7,191.0 443.7,187.0 445.7,183.0 445.7,180.0 443.7,178.0 442.7,177.0 440.7,176.0 438.7" style="fill:none;stroke:#ffffff;stroke-width:2"/>
<polyline points="199.0 421.8,201.0 422.8,204.0 423.8,207.0 423.8,209.0 422.8,212.0 419.8,211.0 415.8,208.0 414.8,203.0 416.8,202.0 418.8,199.0 421.8,198.0 424.8,199.0 427.8,202.0 430.8" style="fill:none;stroke:#ffffff;stroke-width:2"/>
<polyline points="218.0 419.8,218.0 423.8,219.0 415.8,220.0 413.8,221.0 410.8,225.0 408.8,229.0 408.8,235.0 409.8" style="fill:none;stroke:#ffffff;stroke-width:2"/>
</svg>